INTERNET WILL BE DOWN 1 HOUR TONIGHT


 
http://www.imdb.com/title/tt0196931/




Scooby, Shaggy, Fred and the gang meet a horror writer who invites them to a small town for some peace and quiet. Surprisingly enough the gang get caught in the middle of a witch-hoax, and a real ghost is making small town life awkward...

Format : MPEG-4
Format profile : Base Media / Version 2
Codec ID : mp42
File size : 1.01 GiB
Duration : 1h 6mn
Overall bit rate : 2 163 Kbps
Encoded date : UTC 2010-03-24 16:48:33
Tagged date : UTC 2010-03-24 20:12:35
Writing application : HandBrake 0.9.3 2008112300

Video
ID : 1
Format : AVC
Format/Info : Advanced Video Codec
Format profile : Main@L4.0
Format settings, CABAC : Yes
Format settings, ReFrames : 3 frames
Codec ID : avc1
Codec ID/Info : Advanced Video Coding
Duration : 1h 6mn
Bit rate mode : Variable
Bit rate : 2 000 Kbps
Width : 716 pixels
Height : 576 pixels
Display aspect ratio : 4:3
Frame rate mode : Variable
Frame rate : 25.000 fps
Minimum frame rate : 12.500 fps
Maximum frame rate : 25.000 fps
Resolution : 8 bits
Colorimetry : 4:2:0
Scan type : Progressive
Bits/(Pixel*Frame) : 0.194
Stream size : 953 MiB (92%)
Writing library : x264 core 65

Language : English
Encoded date : UTC 2010-03-24 16:48:33
Tagged date : UTC 2010-03-24 20:12:35
Color primaries : BT.601-6 525, BT.1358 525, BT.1700 NTSC, SMPTE 170M
Transfer characteristics : BT.709-5, BT.1361
Matrix coefficients : BT.601-6 525, BT.1358 525, BT.1700 NTSC, SMPTE 170M

Audio
ID : 2
Format : AAC
Format/Info : Advanced Audio Codec
Format version : Version 4
Format profile : LC
Format settings, SBR : No
Codec ID : 40
Duration : 1h 6mn
Bit rate mode : Variable
Bit rate : 160 Kbps
Maximum bit rate : 194 Kbps
Channel(s) : 2 channels
Channel positions : L R
Sampling rate : 48.0 KHz
Stream size : 76.2 MiB (7%)
Language : English
Encoded date : UTC 2010-03-24 16:48:33
Tagged date : UTC 2010-03-24 20:12:32